<mxfile host="app.diagrams.net" agent="Mozilla/5.0 (Macintosh; Intel Mac OS X 10_15_7) AppleWebKit/537.36 (KHTML, like Gecko) Chrome/131.0.0.0 Safari/537.36" version="26.0.2">
  <diagram name="Page-1" id="IvGomVfQnvnbm-iyZiaq">
    <mxGraphModel dx="1026" dy="1750" grid="1" gridSize="10" guides="1" tooltips="1" connect="1" arrows="1" fold="1" page="1" pageScale="1" pageWidth="850" pageHeight="1100" math="0" shadow="0">
      <root>
        <mxCell id="0" />
        <mxCell id="1" parent="0" />
        <mxCell id="XO-GALKPfHcBI_01L1h0-2" value="Lambda" style="rounded=1;whiteSpace=wrap;html=1;" parent="1" vertex="1">
          <mxGeometry x="130" y="160" width="120" height="60" as="geometry" />
        </mxCell>
        <mxCell id="XO-GALKPfHcBI_01L1h0-3" value="Worker大盘" style="rounded=1;whiteSpace=wrap;html=1;" parent="1" vertex="1">
          <mxGeometry x="290" y="160" width="120" height="60" as="geometry" />
        </mxCell>
        <mxCell id="XO-GALKPfHcBI_01L1h0-4" value="数据库" style="shape=cylinder3;whiteSpace=wrap;html=1;boundedLbl=1;backgroundOutline=1;size=15;" parent="1" vertex="1">
          <mxGeometry x="160" y="270" width="60" height="80" as="geometry" />
        </mxCell>
        <mxCell id="XO-GALKPfHcBI_01L1h0-5" value="&lt;div&gt;实时采集&lt;/div&gt;" style="shape=cylinder3;whiteSpace=wrap;html=1;boundedLbl=1;backgroundOutline=1;size=15;" parent="1" vertex="1">
          <mxGeometry x="320" y="270" width="60" height="80" as="geometry" />
        </mxCell>
        <mxCell id="XO-GALKPfHcBI_01L1h0-6" value="" style="endArrow=classic;html=1;rounded=0;exitX=0.5;exitY=1;exitDx=0;exitDy=0;" parent="1" source="XO-GALKPfHcBI_01L1h0-2" target="XO-GALKPfHcBI_01L1h0-4" edge="1">
          <mxGeometry width="50" height="50" relative="1" as="geometry">
            <mxPoint x="400" y="360" as="sourcePoint" />
            <mxPoint x="450" y="310" as="targetPoint" />
          </mxGeometry>
        </mxCell>
        <mxCell id="XO-GALKPfHcBI_01L1h0-7" value="" style="endArrow=classic;html=1;rounded=0;exitX=0.5;exitY=1;exitDx=0;exitDy=0;" parent="1" source="XO-GALKPfHcBI_01L1h0-3" target="XO-GALKPfHcBI_01L1h0-5" edge="1">
          <mxGeometry width="50" height="50" relative="1" as="geometry">
            <mxPoint x="400" y="360" as="sourcePoint" />
            <mxPoint x="450" y="310" as="targetPoint" />
          </mxGeometry>
        </mxCell>
        <mxCell id="XO-GALKPfHcBI_01L1h0-11" value="错误数据" style="edgeStyle=orthogonalEdgeStyle;rounded=0;orthogonalLoop=1;jettySize=auto;html=1;dashed=1;" parent="1" source="XO-GALKPfHcBI_01L1h0-9" target="XO-GALKPfHcBI_01L1h0-2" edge="1">
          <mxGeometry relative="1" as="geometry">
            <mxPoint x="270" y="80" as="targetPoint" />
          </mxGeometry>
        </mxCell>
        <mxCell id="XO-GALKPfHcBI_01L1h0-9" value="模型" style="rounded=1;whiteSpace=wrap;html=1;" parent="1" vertex="1">
          <mxGeometry x="130" y="-10" width="280" height="60" as="geometry" />
        </mxCell>
        <mxCell id="v-sFqhosU-s-XcPySd75-1" value="元数据A" style="text;html=1;align=center;verticalAlign=middle;whiteSpace=wrap;rounded=0;" parent="1" vertex="1">
          <mxGeometry x="160" y="350" width="60" height="30" as="geometry" />
        </mxCell>
        <mxCell id="v-sFqhosU-s-XcPySd75-2" value="元数据B" style="text;html=1;align=center;verticalAlign=middle;whiteSpace=wrap;rounded=0;" parent="1" vertex="1">
          <mxGeometry x="320" y="350" width="60" height="30" as="geometry" />
        </mxCell>
        <mxCell id="v-sFqhosU-s-XcPySd75-3" value="" style="edgeStyle=orthogonalEdgeStyle;rounded=0;orthogonalLoop=1;jettySize=auto;html=1;dashed=1;exitX=0.554;exitY=1.058;exitDx=0;exitDy=0;exitPerimeter=0;" parent="1" source="XO-GALKPfHcBI_01L1h0-9" target="XO-GALKPfHcBI_01L1h0-3" edge="1">
          <mxGeometry relative="1" as="geometry">
            <mxPoint x="280" y="60" as="sourcePoint" />
            <mxPoint x="200" y="170" as="targetPoint" />
          </mxGeometry>
        </mxCell>
        <mxCell id="v-sFqhosU-s-XcPySd75-4" value="正确数据" style="edgeLabel;html=1;align=center;verticalAlign=middle;resizable=0;points=[];" parent="v-sFqhosU-s-XcPySd75-3" vertex="1" connectable="0">
          <mxGeometry x="-0.0851" relative="1" as="geometry">
            <mxPoint y="1" as="offset" />
          </mxGeometry>
        </mxCell>
      </root>
    </mxGraphModel>
  </diagram>
</mxfile>
